<svg xmlns="http://www.w3.org/2000/svg" xmlns:xlink="http://www.w3.org/1999/xlink" width="1018.66" height="512.413" viewBox="0 0 1018.66 512.413">
  <defs>
    <clipPath id="clip-path">
      <path id="Path_5875" data-name="Path 5875" d="M292.588,373.59s-1.688,4.769,1.191,11.2c-.522.235-.127,2.374.811,2.828,1.107.535,9.119.4,10.745-.866a1.732,1.732,0,0,0-.055-1.436s2,.761,7.7-.316a28.965,28.965,0,0,0,10.969-4.131c.671-.425.206-1.943-.55-1.7,0,0-.489-3.955-3.8-3.74-6.777.439-11.638-2.322-15.106-4.416a12.457,12.457,0,0,0-4.508-1.96C297.26,368.913,293.715,370.52,292.588,373.59Z" transform="translate(-292.096 -369.049)" fill="#ed0c37"/>
    </clipPath>
    <clipPath id="clip-path-2">
      <path id="Path_5884" data-name="Path 5884" d="M222.819,362.281s-4.92,1.184-8.746,7.106c-.48-.309-2.061,1.186-1.929,2.221.156,1.221,4.633,7.865,6.584,8.535a1.724,1.724,0,0,0,1.175-.829s.456,2.1,4.464,6.286a28.965,28.965,0,0,0,9.441,6.944c.724.331,1.743-.886,1.127-1.388,0,0,3.048-2.565,1.066-5.223-4.063-5.442-4.4-11.022-4.534-15.071a12.475,12.475,0,0,0-.813-4.848C229.286,363.647,226.006,361.553,222.819,362.281Z" transform="translate(-212.135 -362.134)" fill="#ed0c37"/>
    </clipPath>
  </defs>
  <g id="Group_3186" data-name="Group 3186" transform="translate(-451 -680.739)">
    <g id="Group_3184" data-name="Group 3184" transform="translate(316.836 574.883)">
      <g id="Group_3148" data-name="Group 3148" transform="translate(134.164 368.074)">
        <path id="Path_5793" data-name="Path 5793" d="M1152.658,397.943c-4.052-20.87-42.846-24.346-42.846-24.346s22.664-37.8,6.591-54.92-53.015,23.087-53.015,23.087-12.2-25.407-30.338,0c0,0-30.228-23.085-56.37-11.219-18.671,8.474-15.92,30.86-12.822,42.967H450.47a12.624,12.624,0,0,0-1.653-2.589c-17.341-20.93-67.637-10.156-67.637-10.156s21.009-51.872-13.631-67.593-74.688,14.863-74.688,14.863c-24.036-33.659-40.2,0-40.2,0s-48.943-53.269-70.241-30.588,8.731,72.767,8.731,72.767-51.4,4.6-56.768,32.258,88.93,56.363,88.93,56.363l862.224,1.644S1156.708,418.813,1152.658,397.943Z" transform="translate(-134.164 -271.827)" fill="#71bf9d"/>
        <g id="Group_3116" data-name="Group 3116" transform="translate(56.263 38.359)">
          <path id="Path_5794" data-name="Path 5794" d="M234.062,409.835a385.526,385.526,0,0,0-69.134-120.513" transform="translate(-153.742 -289.322)" fill="none" stroke="#e57e55" stroke-linecap="round" stroke-linejoin="round" stroke-width="0.997"/>
          <path id="Path_5795" data-name="Path 5795" d="M196.451,401.254A750.083,750.083,0,0,1,207.243,297.84" transform="translate(-116.15 -279.164)" fill="none" stroke="#e57e55" stroke-linecap="round" stroke-linejoin="round" stroke-width="0.997"/>
          <path id="Path_5796" data-name="Path 5796" d="M230.819,346.5a253.241,253.241,0,0,0-70.993-22.929" transform="translate(-159.826 -248.477)" fill="none" stroke="#e57e55" stroke-linecap="round" stroke-linejoin="round" stroke-width="0.997"/>
          <path id="Path_5797" data-name="Path 5797" d="M181.8,330.452a126.919,126.919,0,0,0,9.141-32.879" transform="translate(-133.628 -279.483)" fill="none" stroke="#e57e55" stroke-linecap="round" stroke-linejoin="round" stroke-width="0.997"/>
        </g>
        <g id="Group_3117" data-name="Group 3117" transform="translate(903.788 66.239)">
          <path id="Path_5798" data-name="Path 5798" d="M550.314,398.524a308.682,308.682,0,0,1,55.352-96.486" transform="translate(-541.691 -302.038)" fill="none" stroke="#e57e55" stroke-linecap="round" stroke-linejoin="round" stroke-width="0.798"/>
          <path id="Path_5799" data-name="Path 5799" d="M555.022,391.651a600.528,600.528,0,0,0-8.641-82.793" transform="translate(-546.381 -293.905)" fill="none" stroke="#e57e55" stroke-linecap="round" stroke-linejoin="round" stroke-width="0.798"/>
          <path id="Path_5800" data-name="Path 5800" d="M553.72,347.818a202.815,202.815,0,0,1,56.839-18.358" transform="translate(-537.629 -269.337)" fill="none" stroke="#e57e55" stroke-linecap="round" stroke-linejoin="round" stroke-width="0.798"/>
          <path id="Path_5801" data-name="Path 5801" d="M566.037,334.967a101.589,101.589,0,0,1-7.319-26.323" transform="translate(-531.669 -294.16)" fill="none" stroke="#e57e55" stroke-linecap="round" stroke-linejoin="round" stroke-width="0.798"/>
        </g>
        <g id="Group_3132" data-name="Group 3132" transform="translate(44.117 3.577)">
          <g id="Group_3124" data-name="Group 3124" transform="translate(47.417 14.274)">
            <g id="Group_3118" data-name="Group 3118">
              <path id="Path_5802" data-name="Path 5802" d="M177.049,279.987a2.965,2.965,0,0,1,1.081.548,2.789,2.789,0,0,1,.778.93.964.964,0,0,1-.476,1.256.927.927,0,0,1-.594.07,3.055,3.055,0,0,1-1.068-.544,2.886,2.886,0,0,1-.772-.919.97.97,0,0,1,.452-1.263A.927.927,0,0,1,177.049,279.987Z" transform="translate(-175.913 -279.969)" fill="#fff"/>
            </g>
            <g id="Group_3119" data-name="Group 3119" transform="translate(3.485 2.824)">
              <path id="Path_5803" data-name="Path 5803" d="M178.668,281.279a2.958,2.958,0,0,1,1.063.579,2.918,2.918,0,0,1,.752.949.96.96,0,0,1-.509,1.241.925.925,0,0,1-.6.055,2.982,2.982,0,0,1-1.8-1.513.957.957,0,0,1,.485-1.245A.934.934,0,0,1,178.668,281.279Z" transform="translate(-177.502 -281.257)" fill="#fff"/>
            </g>
            <g id="Group_3120" data-name="Group 3120" transform="translate(6.893 5.74)">
              <path id="Path_5804" data-name="Path 5804" d="M180.245,282.614a2.843,2.843,0,0,1,1.05.6,2.893,2.893,0,0,1,.728.967.959.959,0,0,1-.535,1.228.944.944,0,0,1-.6.044,2.907,2.907,0,0,1-1.041-.6,3.013,3.013,0,0,1-.724-.958.962.962,0,0,1,.517-1.234A.942.942,0,0,1,180.245,282.614Z" transform="translate(-179.057 -282.586)" fill="#fff"/>
            </g>
            <g id="Group_3121" data-name="Group 3121" transform="translate(12.783 11.103)">
              <path id="Path_5805" data-name="Path 5805" d="M182.966,285.071a2.983,2.983,0,0,1,1.717,1.636.96.96,0,0,1-.583,1.208.936.936,0,0,1-.6.02,2.9,2.9,0,0,1-1.015-.64,2.873,2.873,0,0,1-.688-.982.964.964,0,0,1,.566-1.215A.922.922,0,0,1,182.966,285.071Z" transform="translate(-181.743 -285.032)" fill="#fff"/>
            </g>
            <g id="Group_3122" data-name="Group 3122" transform="translate(16.892 15.092)">
              <path id="Path_5806" data-name="Path 5806" d="M184.823,286.857a1.176,1.176,0,0,1,1.013,1.011,1.122,1.122,0,0,1-1,1.2.99.99,0,0,1-.213,0,1.175,1.175,0,0,1-1.006-1,1.123,1.123,0,0,1,.982-1.206A1.055,1.055,0,0,1,184.823,286.857Z" transform="translate(-183.617 -286.852)" fill="#fff"/>
            </g>
            <g id="Group_3123" data-name="Group 3123" transform="translate(20.209 18.554)">
              <path id="Path_5807" data-name="Path 5807" d="M186.362,288.438a1.211,1.211,0,0,1,.671.353,1.189,1.189,0,0,1,.318.688,1.12,1.12,0,0,1-1.03,1.169,1.14,1.14,0,0,1-.213,0,1.172,1.172,0,0,1-.976-1.026,1.123,1.123,0,0,1,1.011-1.182A1.042,1.042,0,0,1,186.362,288.438Z" transform="translate(-185.13 -288.431)" fill="#fff"/>
            </g>
          </g>
          <g id="Group_3131" data-name="Group 3131">
            <g id="Group_3125" data-name="Group 3125" transform="translate(8.927)">
              <path id="Path_5808" data-name="Path 5808" d="M158.755,276.054a18.622,18.622,0,0,1,9.917-2.6,28.722,28.722,0,0,1,9.961,2.282,63.108,63.108,0,0,1,8.908,4.69,91.392,91.392,0,0,1,8.141,5.806.854.854,0,0,1-1.024,1.364c-2.679-1.9-5.407-3.721-8.2-5.4a61.216,61.216,0,0,0-8.649-4.435,26.664,26.664,0,0,0-9.173-2.23,17.856,17.856,0,0,0-9,1.982.916.916,0,0,1-1.149-.351A.781.781,0,0,1,158.755,276.054Z" transform="translate(-158.358 -273.458)" fill="#fff"/>
            </g>
            <g id="Group_3126" data-name="Group 3126" transform="translate(5.696 3.842)">
              <path id="Path_5809" data-name="Path 5809" d="M159.522,276.523c-.1.36-.366.522-.539.789a1.893,1.893,0,0,1-.8.533,1.041,1.041,0,0,1-1.25-.634.939.939,0,0,1-.024-.5,2.36,2.36,0,0,1,.542-.958,1.844,1.844,0,0,1,.967-.528,1,1,0,0,1,1.107,1.3Z" transform="translate(-156.884 -275.21)" fill="#fff"/>
            </g>
            <g id="Group_3127" data-name="Group 3127" transform="translate(3.437 6.736)">
              <path id="Path_5810" data-name="Path 5810" d="M158.354,277.6a1.935,1.935,0,0,1-.327.914,2.885,2.885,0,0,1-.675.706A1.012,1.012,0,0,1,156,278.9a.965.965,0,0,1-.149-.482,1.773,1.773,0,0,1,.309-1.037,2.344,2.344,0,0,1,.794-.748.96.96,0,0,1,1.3.493A1.045,1.045,0,0,1,158.354,277.6Z" transform="translate(-155.854 -276.531)" fill="#fff"/>
            </g>
            <g id="Group_3128" data-name="Group 3128" transform="translate(0.553 9.902)">
              <path id="Path_5811" data-name="Path 5811" d="M158.162,279.048c-.138.647-.327,1.267-.52,1.883l-.478,1.89c-.316,1.265-.581,2.539-.932,3.828a.884.884,0,0,1-1.059.585.819.819,0,0,1-.631-.8,17.918,17.918,0,0,1,.5-4.144l.629-2.01a18.637,18.637,0,0,1,.923-1.908.839.839,0,0,1,1.193-.259A.883.883,0,0,1,158.162,279.048Z" transform="translate(-154.538 -277.974)" fill="#fff"/>
            </g>
            <g id="Group_3129" data-name="Group 3129" transform="translate(0 21.536)">
              <path id="Path_5812" data-name="Path 5812" d="M156.251,283.674a.85.85,0,0,1-.042,1.184,1.213,1.213,0,0,1-1.682-.013l-.022-.024a.9.9,0,0,1,.044-1.226,1.208,1.208,0,0,1,1.675.048Z" transform="translate(-154.286 -283.281)" fill="#fff"/>
            </g>
            <g id="Group_3130" data-name="Group 3130" transform="translate(0.055 25.588)">
              <path id="Path_5813" data-name="Path 5813" d="M156.234,285.458a.856.856,0,0,1,.042,1.188,1.212,1.212,0,0,1-1.677.1l-.024-.022a.891.891,0,0,1-.044-1.219,1.2,1.2,0,0,1,1.673-.072Z" transform="translate(-154.311 -285.129)" fill="#fff"/>
            </g>
          </g>
        </g>
        <g id="Group_3147" data-name="Group 3147" transform="translate(934.12 47.078)">
          <g id="Group_3139" data-name="Group 3139" transform="translate(35.421 24.507)">
            <g id="Group_3133" data-name="Group 3133" transform="translate(9.248)">
              <path id="Path_5814" data-name="Path 5814" d="M582.856,305.212a3.454,3.454,0,0,1-.037,1.3,3.2,3.2,0,0,1-.531,1.186.93.93,0,0,1-1.344.134.977.977,0,0,1-.313-.533,3.428,3.428,0,0,1,.057-1.274,3.231,3.231,0,0,1,.5-1.171.943.943,0,0,1,1.34-.178A.961.961,0,0,1,582.856,305.212Z" transform="translate(-580.589 -304.476)" fill="#fff"/>
            </g>
            <g id="Group_3134" data-name="Group 3134" transform="translate(8.046 4.666)">
              <path id="Path_5815" data-name="Path 5815" d="M582.382,307.384a3.356,3.356,0,0,1-.1,1.3,3.223,3.223,0,0,1-.579,1.16.93.93,0,0,1-1.348.079.966.966,0,0,1-.29-.548,3.313,3.313,0,0,1,.11-1.272,3.275,3.275,0,0,1,.555-1.149.935.935,0,0,1,1.649.434Z" transform="translate(-580.04 -306.604)" fill="#fff"/>
            </g>
            <g id="Group_3135" data-name="Group 3135" transform="translate(6.666 9.281)">
              <path id="Path_5816" data-name="Path 5816" d="M581.81,309.522a3.347,3.347,0,0,1-.14,1.289,3.27,3.27,0,0,1-.618,1.138.93.93,0,0,1-1.351.035.971.971,0,0,1-.272-.557,3.514,3.514,0,0,1,.75-2.4.94.94,0,0,1,1.351-.064A.957.957,0,0,1,581.81,309.522Z" transform="translate(-579.411 -308.709)" fill="#fff"/>
            </g>
            <g id="Group_3136" data-name="Group 3136" transform="translate(3.879 17.363)">
              <path id="Path_5817" data-name="Path 5817" d="M580.62,313.258a3.32,3.32,0,0,1-.208,1.276,3.228,3.228,0,0,1-.669,1.107.93.93,0,0,1-1.35-.031.977.977,0,0,1-.246-.57,3.321,3.321,0,0,1,.215-1.261,3.253,3.253,0,0,1,.655-1.1.938.938,0,0,1,1.351.007A.971.971,0,0,1,580.62,313.258Z" transform="translate(-578.14 -312.396)" fill="#fff"/>
            </g>
            <g id="Group_3137" data-name="Group 3137" transform="translate(2.017 23.144)">
              <path id="Path_5818" data-name="Path 5818" d="M579.48,315.812a1.353,1.353,0,0,1-.059.8,1.336,1.336,0,0,1-.511.623,1.071,1.071,0,0,1-1.5-.434,1.51,1.51,0,0,1-.083-.206,1.329,1.329,0,0,1,.566-1.41,1.071,1.071,0,0,1,1.5.417A1.254,1.254,0,0,1,579.48,315.812Z" transform="translate(-577.29 -315.032)" fill="#fff"/>
            </g>
            <g id="Group_3138" data-name="Group 3138" transform="translate(0 27.865)">
              <path id="Path_5819" data-name="Path 5819" d="M578.573,317.993a1.327,1.327,0,0,1-.612,1.41,1.07,1.07,0,0,1-1.482-.482,1.486,1.486,0,0,1-.077-.208,1.326,1.326,0,0,1,.083-.789,1.341,1.341,0,0,1,.522-.6,1.072,1.072,0,0,1,1.486.458A1.125,1.125,0,0,1,578.573,317.993Z" transform="translate(-576.37 -317.186)" fill="#fff"/>
            </g>
          </g>
          <g id="Group_3146" data-name="Group 3146">
            <g id="Group_3140" data-name="Group 3140" transform="translate(22.148)">
              <path id="Path_5820" data-name="Path 5820" d="M570.747,298.5a39.146,39.146,0,0,1,9.849-4.471c3.471-.976,7.588-1.217,11.05.818a9.135,9.135,0,0,1,3.668,4.525,19.508,19.508,0,0,1,1.136,5.47,43.708,43.708,0,0,1-.969,10.763.852.852,0,1,1-1.677-.3,48.215,48.215,0,0,0,.577-10.318c-.272-3.306-1.239-6.784-3.874-8.279-2.631-1.6-6.152-1.563-9.384-.677a42.287,42.287,0,0,0-9.524,3.942.864.864,0,0,1-1.177-.318A.875.875,0,0,1,570.747,298.5Z" transform="translate(-570.317 -293.299)" fill="#fff"/>
            </g>
            <g id="Group_3141" data-name="Group 3141" transform="translate(18.408 6.318)">
              <path id="Path_5821" data-name="Path 5821" d="M571.442,297.629a2.376,2.376,0,0,1-.763.765,2.513,2.513,0,0,1-1.013.377.97.97,0,0,1-1.055-.921,1.05,1.05,0,0,1,.112-.5,2.331,2.331,0,0,1,.772-.794,2.5,2.5,0,0,1,1.044-.375.958.958,0,0,1,1.026.949A1.039,1.039,0,0,1,571.442,297.629Z" transform="translate(-568.611 -296.18)" fill="#fff"/>
            </g>
            <g id="Group_3142" data-name="Group 3142" transform="translate(15.068 8.57)">
              <path id="Path_5822" data-name="Path 5822" d="M569.908,298.614a2.369,2.369,0,0,1-.728.8,2.493,2.493,0,0,1-1,.423.968.968,0,0,1-1.092-.877,1,1,0,0,1,.09-.5,2.314,2.314,0,0,1,.734-.824,2.447,2.447,0,0,1,1.022-.423.957.957,0,0,1,1.07.9A1.027,1.027,0,0,1,569.908,298.614Z" transform="translate(-567.087 -297.207)" fill="#fff"/>
            </g>
            <g id="Group_3143" data-name="Group 3143" transform="translate(6.61 10.854)">
              <path id="Path_5823" data-name="Path 5823" d="M571.253,299.731c-1.022,1.02-2.142,1.908-3.232,2.835-1.131.875-2.23,1.791-3.449,2.572a.867.867,0,0,1-1.21-.237.882.882,0,0,1,.094-1.052,29.232,29.232,0,0,1,3.188-2.98,28.29,28.29,0,0,1,3.583-2.5.858.858,0,0,1,1.193.322A.894.894,0,0,1,571.253,299.731Z" transform="translate(-563.23 -298.249)" fill="#fff"/>
            </g>
            <g id="Group_3144" data-name="Group 3144" transform="translate(3.119 18.902)">
              <path id="Path_5824" data-name="Path 5824" d="M563.744,303.181a.979.979,0,0,1-.945.866,1.156,1.156,0,0,1-1.16-1.215l0-.037a1,1,0,0,1,.314-.616,1.022,1.022,0,0,1,.642-.259,1.15,1.15,0,0,1,1.149,1.219Z" transform="translate(-561.637 -301.92)" fill="#fff"/>
            </g>
            <g id="Group_3145" data-name="Group 3145" transform="translate(0 21.918)">
              <path id="Path_5825" data-name="Path 5825" d="M562.331,304.517a.974.974,0,0,1-.91.9,1.157,1.157,0,0,1-1.206-1.171l0-.035a.988.988,0,0,1,.927-.912,1.152,1.152,0,0,1,1.188,1.182Z" transform="translate(-560.215 -303.296)" fill="#fff"/>
            </g>
          </g>
        </g>
      </g>
      <path id="Path_5826" data-name="Path 5826" d="M435.508,252.478" transform="translate(359.355 73.174)" fill="#ffb072"/>
      <g id="Group_3183" data-name="Group 3183" transform="translate(298.438 191.117)">
        <g id="Group_3158" data-name="Group 3158" transform="translate(176.067 173.886)">
          <g id="Group_3156" data-name="Group 3156">
            <path id="Path_5827" data-name="Path 5827" d="M333.075,368.791l-17.3,29.965c-3.512,6.082,1.278,13.416,8.766,13.416h170.1c6.766,0,11.55-6.091,9.423-12l-10.778-29.963a9.89,9.89,0,0,0-9.423-6.264H341.843A10.081,10.081,0,0,0,333.075,368.791Z" transform="translate(-259.334 -158.905)" fill="#764582" opacity="0.124"/>
            <g id="Group_3155" data-name="Group 3155">
              <g id="Group_3149" data-name="Group 3149" transform="translate(78.351 185.024)">
                <path id="Path_5828" data-name="Path 5828" d="M355.348,370.574a15.11,15.11,0,1,1-15.111-15.109A15.11,15.11,0,0,1,355.348,370.574Z" transform="translate(-325.129 -354.04)" fill="#764582"/>
                <circle id="Ellipse_241" data-name="Ellipse 241" cx="9.085" cy="9.085" r="9.085" transform="translate(6.024 7.448)" fill="#3e2344"/>
                <path id="Path_5829" data-name="Path 5829" d="M329.477,369.7l5.181-13.664a1.882,1.882,0,0,1,1.763-1.217h18.018a1.884,1.884,0,0,1,1.381,3.166L339.6,375.493a5.09,5.09,0,0,1-5.317,1.379l-1.622-.531A5.091,5.091,0,0,1,329.477,369.7Z" transform="translate(-320.341 -354.815)" fill="#ffdcae"/>
                <circle id="Ellipse_242" data-name="Ellipse 242" cx="3.48" cy="3.48" r="3.48" transform="translate(11.63 13.054)" fill="#764582"/>
              </g>
              <g id="Group_3150" data-name="Group 3150" transform="translate(190.322 185.024)">
                <path id="Path_5830" data-name="Path 5830" d="M378.829,370.574a15.11,15.11,0,1,0,15.109-15.109A15.108,15.108,0,0,0,378.829,370.574Z" transform="translate(-373.062 -354.04)" fill="#764582"/>
                <path id="Path_5831" data-name="Path 5831" d="M381.577,367.3a9.085,9.085,0,1,0,9.084-9.086A9.084,9.084,0,0,0,381.577,367.3Z" transform="translate(-369.785 -350.764)" fill="#3e2344"/>
                <path id="Path_5832" data-name="Path 5832" d="M403.049,369.7l-5.181-13.664a1.887,1.887,0,0,0-1.763-1.217H378.087a1.886,1.886,0,0,0-1.383,3.166l16.227,17.512a5.09,5.09,0,0,0,5.317,1.379l1.622-.531A5.093,5.093,0,0,0,403.049,369.7Z" transform="translate(-376.199 -354.815)" fill="#ffdcae"/>
                <circle id="Ellipse_243" data-name="Ellipse 243" cx="3.48" cy="3.48" r="3.48" transform="translate(17.397 13.054)" fill="#764582"/>
              </g>
              <g id="Group_3151" data-name="Group 3151">
                <path id="Path_5833" data-name="Path 5833" d="M343.335,331.6a2.24,2.24,0,0,1-2.059-1.351c-5.122-11.853-13.651-31.175-15.181-33.591-2.289-1.664-19.535-7.808-35.155-12.874a2.239,2.239,0,0,1,0-4.26l27.753-8.994a2.28,2.28,0,0,1,1.283-.031c2.653.724,26.08,7.213,31.118,11.9,4,3.721,15.808,28.34,18.134,33.236a2.238,2.238,0,1,1-4.043,1.921c-5.242-11.037-14.532-29.454-17.139-31.877-3.116-2.9-18.917-8-28.61-10.68l-20.581,6.67c14.335,4.758,29.158,10.072,30.746,12.193,1.859,2.478,13.475,29.27,15.786,34.615a2.239,2.239,0,0,1-2.052,3.127Z" transform="translate(-289.393 -270.426)" fill="#fd6141"/>
              </g>
              <path id="Path_5834" data-name="Path 5834" d="M311.228,301.692,336.495,286l194.838,9.533,4.469,12.215Z" transform="translate(-263.354 -251.849)" fill="#fff" stroke="#fd6141" stroke-linecap="round" stroke-linejoin="round" stroke-width="1.854"/>
              <path id="Path_5835" data-name="Path 5835" d="M310.387,293.341l29.487,97.247a6.737,6.737,0,0,0,6.654,4.78l163.1-5.045a6.737,6.737,0,0,0,6.341-5.15L536.805,299Z" transform="translate(-264.358 -243.099)" fill="#703367"/>
              <path id="Path_5836" data-name="Path 5836" d="M332.718,333.424c10.537,21.927,33.85,26.347,56.045,25.247,47.648-2.359,89.283-20.967,117.187-60.5,0,0-173.454-4.337-173.5-4.337-2.561-.035-3.822,16.608-3.949,18.768A42.461,42.461,0,0,0,332.718,333.424Z" transform="translate(-242.832 -242.506)" fill="#912b59"/>
              <path id="Path_5837" data-name="Path 5837" d="M501.77,391.57a63.393,63.393,0,0,0-9.064-19.969c-1.541-2.092-4.067-4.492-9.987-4.492H347.665c-2.127,0-5.935-.353-7.549-2.712-1.513-2.217-.647-5.716.344-8.259a153.955,153.955,0,0,1,7.571-16.724l-5.275.441c-.149.272-2.368,4.15-6.466,14.657-2.013,5.161-1.971,9.336.129,12.41,2.085,3.052,5.975,4.666,11.245,4.666H354.9v3.03a3.4,3.4,0,0,0,3.4,3.4h2.587a3.4,3.4,0,0,0,3.4-3.4v-3.03h89.3v3.03a3.4,3.4,0,0,0,3.4,3.4h2.587a3.4,3.4,0,0,0,3.4-3.4v-3.03h19.737c4.074,0,5.429,1.377,6.38,2.67a59.277,59.277,0,0,1,8.329,18.4,4.161,4.161,0,0,1-.322,3.589c-1.223,1.6-4.313,1.8-5.229,1.815-31.3.7-98.786.318-135.045.11-10.778-.064-18.943-.11-22.833-.11-5.5,0-9.59-1.574-11.524-4.431-1.859-2.754-1.807-6.79.154-11.682,4.317-10.754,17.005-42.793,17.005-42.793l-4.161-1.649s-12.684,32.026-17,42.778c-3.208,8-1.611,13.037.294,15.854,2.791,4.126,8.2,6.4,15.231,6.4,2.55,0,6.97.02,12.732.05v2.931a3.4,3.4,0,0,0,3.4,3.4h2.587a3.4,3.4,0,0,0,3.4-3.4v-2.2l.669-.677c20.662.121,51.463.294,79.95.294,7.731,0,15.286-.013,22.429-.044v2.624a3.4,3.4,0,0,0,3.4,3.4h2.587a3.4,3.4,0,0,0,3.4-3.4V402.84c8.943-.061,16.952-.16,23.412-.3,2.265-.053,6.409-.583,8.691-3.576C502.142,397.023,502.513,394.539,501.77,391.57Z" transform="translate(-256.899 -190.435)" fill="#fd6141"/>
              <g id="Group_3152" data-name="Group 3152" transform="translate(50.3 44.767)">
                <path id="Path_5838" data-name="Path 5838" d="M527.953,298.12l-20.215,83.361a5.278,5.278,0,0,1-4.955,4.025l-76.159,2.355q8.863-9.57,17.582-19.272c.428-.478.566-1.07.3-1.346s-.884-.125-1.357.362q-9.4,9.712-18.649,19.568l-.011.013a2.575,2.575,0,0,0-.48.756l-67.231,2.078q9.409-10.152,18.669-20.445c.45-.5.6-1.112.34-1.388s-.9-.107-1.394.4q-9.84,10.179-19.522,20.5l-.013.013a2.709,2.709,0,0,0-.59.993l-6.078.186a5.284,5.284,0,0,1-5.2-3.736L329.566,342.3q5.2-5.643,10.257-11.423a.723.723,0,0,0-1.057-.984q-5.009,5.029-9.871,10.193l-14.416-47.531-2.144.651,28.509,94a7.514,7.514,0,0,0,7.18,5.326c.079,0,.156,0,.235,0l154.594-4.78a7.526,7.526,0,0,0,7.062-5.738l20.215-83.359Z" transform="translate(-312.335 -288.804)" fill="#fff"/>
                <path id="Path_5839" data-name="Path 5839" d="M326.36,311.48a9.627,9.627,0,0,0,2.813-3.015.824.824,0,0,0-1.16-1.081,8.967,8.967,0,0,0-1.57,1.355,9.06,9.06,0,0,0-1.243,1.66.824.824,0,0,0,1.16,1.081Z" transform="translate(-297.103 -271.265)" fill="#fff"/>
                <path id="Path_5840" data-name="Path 5840" d="M328.2,308.189a.852.852,0,0,0,.546-.259.841.841,0,0,0,.219-.563v-.022a1.123,1.123,0,0,0-1.158-1.059.813.813,0,0,0-.765.822v.026A1.121,1.121,0,0,0,328.2,308.189Z" transform="translate(-294.792 -272.43)" fill="#fff"/>
                <path id="Path_5841" data-name="Path 5841" d="M336.745,306.577q6.821-6.943,13.484-14.03l0-.007a1.016,1.016,0,0,0-1.493-1.379q-6.6,7.14-13.052,14.429a.724.724,0,0,0,1.057.987Z" transform="translate(-284.695 -290.844)" fill="#fff"/>
                <path id="Path_5842" data-name="Path 5842" d="M335.636,300.25a.818.818,0,0,0,.765-.822l0-.026a1.118,1.118,0,0,0-1.158-1.055.817.817,0,0,0-.765.822l0,.022A1.121,1.121,0,0,0,335.636,300.25Z" transform="translate(-285.932 -281.898)" fill="#fff"/>
                <path id="Path_5843" data-name="Path 5843" d="M334.507,301.458a.814.814,0,0,0,.765-.82v-.029a1.121,1.121,0,0,0-1.16-1.052.817.817,0,0,0-.765.822l0,.02A1.12,1.12,0,0,0,334.507,301.458Z" transform="translate(-287.278 -280.454)" fill="#fff"/>
                <path id="Path_5844" data-name="Path 5844" d="M333.378,302.669a.814.814,0,0,0,.765-.82v-.029a1.12,1.12,0,0,0-1.158-1.052.813.813,0,0,0-.767.82l0,.022A1.123,1.123,0,0,0,333.378,302.669Z" transform="translate(-288.625 -279.01)" fill="#fff"/>
                <path id="Path_5845" data-name="Path 5845" d="M329.584,310.1a42.917,42.917,0,0,0,3.265-3.175,43.722,43.722,0,0,0,2.938-3.477.8.8,0,0,0-1.16-1.081,44.182,44.182,0,0,0-3.265,3.173,43.351,43.351,0,0,0-2.936,3.479.8.8,0,0,0,1.158,1.081Z" transform="translate(-293.324 -277.326)" fill="#fff"/>
                <path id="Path_5846" data-name="Path 5846" d="M341.943,329.987c.18.45.824.417,1.44-.075a29.578,29.578,0,0,0,2.71-2.578,28.976,28.976,0,0,0,2.381-2.883,1.353,1.353,0,0,0,.283-1.153c-.18-.449-.824-.419-1.44.072a29.276,29.276,0,0,0-2.71,2.578,29.6,29.6,0,0,0-2.383,2.883A1.349,1.349,0,0,0,341.943,329.987Z" transform="translate(-277.082 -252.521)" fill="#fff"/>
                <path id="Path_5847" data-name="Path 5847" d="M346.666,323.9a2.362,2.362,0,0,0,.855-.592,2.313,2.313,0,0,0,.531-.895l.007-.031c.2-.859-.32-1.329-1.166-1.05a2.408,2.408,0,0,0-1.386,1.487l-.009.039C345.3,323.714,345.822,324.181,346.666,323.9Z" transform="translate(-272.84 -254.579)" fill="#fff"/>
                <path id="Path_5848" data-name="Path 5848" d="M362.237,321.028q12.2-12.708,24.24-25.565l.009-.009c.682-.734.9-1.636.485-2.017s-1.3-.092-1.982.64q-11.981,12.908-23.808,25.966c-.456.5-.61,1.12-.34,1.4S361.744,321.541,362.237,321.028Z" transform="translate(-254.651 -287.951)" fill="#fff"/>
                <path id="Path_5849" data-name="Path 5849" d="M360.107,309.516a2.422,2.422,0,0,0,1.386-1.487l.009-.039c.2-.855-.324-1.322-1.169-1.041a2.423,2.423,0,0,0-1.386,1.487l-.007.031C358.739,309.323,359.261,309.794,360.107,309.516Z" transform="translate(-256.809 -271.737)" fill="#fff"/>
                <path id="Path_5850" data-name="Path 5850" d="M358.063,311.708a2.422,2.422,0,0,0,1.386-1.487l.011-.039c.2-.855-.327-1.322-1.171-1.041a2.355,2.355,0,0,0-.855.59,2.323,2.323,0,0,0-.531.9l-.007.031C356.695,311.515,357.217,311.986,358.063,311.708Z" transform="translate(-259.247 -269.123)" fill="#fff"/>
                <path id="Path_5851" data-name="Path 5851" d="M356.019,313.9a2.408,2.408,0,0,0,1.386-1.487l.011-.039c.2-.855-.327-1.32-1.171-1.042a2.424,2.424,0,0,0-1.386,1.487l-.007.031C354.651,313.706,355.173,314.178,356.019,313.9Z" transform="translate(-261.684 -266.508)" fill="#fff"/>
                <path id="Path_5852" data-name="Path 5852" d="M349.215,327.4c2.008-1.879,3.887-3.879,5.777-5.869,1.853-2.024,3.716-4.041,5.453-6.174.4-.493.555-1.07.338-1.383-.256-.366-.927-.23-1.5.3-2.006,1.881-3.887,3.881-5.779,5.869-1.85,2.026-3.714,4.041-5.451,6.174-.4.493-.555,1.07-.338,1.383C347.974,328.065,348.645,327.931,349.215,327.4Z" transform="translate(-270.259 -263.513)" fill="#fff"/>
                <path id="Path_5853" data-name="Path 5853" d="M374.664,329.382a28.36,28.36,0,0,0,4.863-5.214,1.281,1.281,0,0,0,.25-1.118c-.186-.445-.816-.428-1.41.037a28.633,28.633,0,0,0-4.861,5.214,1.276,1.276,0,0,0-.25,1.123C373.44,329.866,374.072,329.846,374.664,329.382Z" transform="translate(-239.748 -252.824)" fill="#fff"/>
                <path id="Path_5854" data-name="Path 5854" d="M377.8,323.644a2.226,2.226,0,0,0,1.324-1.419l.007-.031c.178-.831-.344-1.3-1.166-1.05a2.152,2.152,0,0,0-.827.557,2.192,2.192,0,0,0-.5.862l-.009.039C376.459,323.432,376.981,323.9,377.8,323.644Z" transform="translate(-235.7 -254.791)" fill="#fff"/>
                <path id="Path_5855" data-name="Path 5855" d="M392.663,320.9q11.659-12.126,23.155-24.4l.009-.009c.651-.7.842-1.576.43-1.958s-1.276-.121-1.925.581q-11.442,12.326-22.725,24.8c-.434.48-.572,1.079-.3,1.355S392.194,321.388,392.663,320.9Z" transform="translate(-218.328 -286.654)" fill="#fff"/>
                <path id="Path_5856" data-name="Path 5856" d="M390.636,309.91a2.169,2.169,0,0,0,.824-.557,2.135,2.135,0,0,0,.5-.864l.009-.037c.175-.829-.346-1.3-1.166-1.044a2.181,2.181,0,0,0-.827.559,2.125,2.125,0,0,0-.5.862l-.007.031C389.292,309.691,389.814,310.162,390.636,309.91Z" transform="translate(-220.392 -271.173)" fill="#fff"/>
                <path id="Path_5857" data-name="Path 5857" d="M388.684,312a2.154,2.154,0,0,0,.827-.557,2.186,2.186,0,0,0,.5-.864l.009-.037c.173-.829-.349-1.3-1.169-1.044a2.237,2.237,0,0,0-1.324,1.421l-.007.031C387.34,311.784,387.862,312.255,388.684,312Z" transform="translate(-222.72 -268.677)" fill="#fff"/>
                <path id="Path_5858" data-name="Path 5858" d="M386.731,314.1a2.135,2.135,0,0,0,.827-.557,2.158,2.158,0,0,0,.5-.864l.009-.037c.175-.829-.349-1.3-1.169-1.041a2.216,2.216,0,0,0-1.322,1.419l-.007.031C385.389,313.876,385.911,314.347,386.731,314.1Z" transform="translate(-225.047 -266.18)" fill="#fff"/>
                <path id="Path_5859" data-name="Path 5859" d="M380.232,326.979c1.923-1.789,3.719-3.7,5.525-5.6,1.767-1.936,3.545-3.861,5.2-5.9a1.222,1.222,0,0,0,.3-1.344c-.259-.364-.912-.246-1.458.263-1.923,1.789-3.719,3.7-5.525,5.6-1.767,1.936-3.547,3.859-5.2,5.9a1.223,1.223,0,0,0-.3,1.342C379.033,327.606,379.686,327.488,380.232,326.979Z" transform="translate(-233.231 -263.318)" fill="#fff"/>
              </g>
              <path id="Path_5860" data-name="Path 5860" d="M337.4,380.473l7.943-28.107h84.2l4.59,28.107Z" transform="translate(-232.145 -172.711)" fill="#553a73"/>
              <g id="Group_3153" data-name="Group 3153" transform="translate(65.611 216.088)">
                <circle id="Ellipse_244" data-name="Ellipse 244" cx="17.753" cy="17.753" r="17.753" transform="translate(0 1.674)" fill="#764582"/>
                <path id="Path_5861" data-name="Path 5861" d="M343.9,383.648a10.674,10.674,0,1,1-10.675-10.673A10.676,10.676,0,0,1,343.9,383.648Z" transform="translate(-315.468 -364.223)" fill="#3e2344"/>
                <path id="Path_5862" data-name="Path 5862" d="M324.426,386.468l6.089-16.056a2.212,2.212,0,0,1,2.07-1.43h21.171a2.215,2.215,0,0,1,1.625,3.721l-19.064,20.575a5.987,5.987,0,0,1-6.249,1.62l-1.905-.623A5.983,5.983,0,0,1,324.426,386.468Z" transform="translate(-313.693 -368.983)" fill="#ffdcae"/>
                <path id="Path_5863" data-name="Path 5863" d="M333.727,380.066a4.088,4.088,0,1,1-4.089-4.087A4.089,4.089,0,0,1,333.727,380.066Z" transform="translate(-311.886 -360.64)" fill="#764582"/>
              </g>
              <g id="Group_3154" data-name="Group 3154" transform="translate(194.462 216.088)">
                <circle id="Ellipse_245" data-name="Ellipse 245" cx="17.753" cy="17.753" r="17.753" transform="translate(6.775 1.674)" fill="#764582"/>
                <path id="Path_5864" data-name="Path 5864" d="M384.4,383.648a10.675,10.675,0,1,0,10.675-10.673A10.676,10.676,0,0,0,384.4,383.648Z" transform="translate(-370.552 -364.223)" fill="#3e2344"/>
                <path id="Path_5865" data-name="Path 5865" d="M409.633,386.468l-6.086-16.056a2.217,2.217,0,0,0-2.072-1.43H380.306a2.215,2.215,0,0,0-1.625,3.721l19.064,20.575a5.983,5.983,0,0,0,6.246,1.62l1.907-.623A5.984,5.984,0,0,0,409.633,386.468Z" transform="translate(-378.087 -368.983)" fill="#ffdcae"/>
                <path id="Path_5866" data-name="Path 5866" d="M387.409,380.066a4.089,4.089,0,1,0,4.089-4.087A4.089,4.089,0,0,0,387.409,380.066Z" transform="translate(-366.97 -360.64)" fill="#764582"/>
              </g>
            </g>
          </g>
        </g>
        <g id="Group_3159" data-name="Group 3159" transform="translate(0 402.885)">
          <ellipse id="Ellipse_246" data-name="Ellipse 246" cx="108.07" cy="6.218" rx="108.07" ry="6.218" fill="#764582" opacity="0.124"/>
        </g>
        <g id="Group_3182" data-name="Group 3182" transform="translate(6.679)">
          <g id="Group_3164" data-name="Group 3164" transform="translate(95.596 184.301)">
            <g id="Group_3162" data-name="Group 3162" transform="translate(57.897 136.578)">
              <path id="Path_5871" data-name="Path 5871" d="M282.225,354.349c1.747,17.371,16.347,42.787,22.013,56.964,1.668,4.177,9.573,1.842,8.68-2.565-3.043-15.012-5.133-45.418-6.523-60.925C304.758,329.562,280.564,337.815,282.225,354.349Z" transform="translate(-282.144 -337.469)" fill="#ffb072"/>
              <g id="Group_3161" data-name="Group 3161" transform="translate(21.82 69.238)">
                <path id="Path_5872" data-name="Path 5872" d="M292.588,373.59s-1.688,4.769,1.191,11.2c-.522.235-.127,2.374.811,2.828,1.107.535,9.119.4,10.745-.866a1.732,1.732,0,0,0-.055-1.436s2,.761,7.7-.316a28.965,28.965,0,0,0,10.969-4.131c.671-.425.206-1.943-.55-1.7,0,0-.489-3.955-3.8-3.74-6.777.439-11.638-2.322-15.106-4.416a12.457,12.457,0,0,0-4.508-1.96C297.26,368.913,293.715,370.52,292.588,373.59Z" transform="translate(-292.096 -369.049)" fill="#ed0c37"/>
                <g id="Group_3160" data-name="Group 3160" clip-path="url(#clip-path)">
                  <path id="Path_5873" data-name="Path 5873" d="M294.067,380.5a63.837,63.837,0,0,0,11.526-.18s12.984-.226,18.1-5.44,9.535.34,9.535.34l-21.252,16.924-13.883-1.085-6.2-5.234S291.379,380.191,294.067,380.5Z" transform="translate(-292.385 -364.755)" fill="#ffaec1"/>
                  <path id="Path_5874" data-name="Path 5874" d="M292.294,374.966a5.377,5.377,0,0,0,5.685,2.438c3.822-.811,4.21-3.159,3.344-7.246S288.28,368.77,292.294,374.966Z" transform="translate(-292.824 -370.048)" fill="#ffb072"/>
                </g>
              </g>
            </g>
            <g id="Group_3163" data-name="Group 3163">
              <path id="Path_5876" data-name="Path 5876" d="M256.888,304.323s24.971,44.918,33.219,63.276,18.687,63.692,18.687,63.692,20.531,4.319,31.289-5.312c0,0-3.449-47.834-9.307-69.316s-28.123-74.214-28.123-74.214C293.714,263.516,247.949,285.391,256.888,304.323Z" transform="translate(-255.737 -275.176)" fill="#552f5e"/>
              <path id="Path_5877" data-name="Path 5877" d="M265.58,320.788a84.761,84.761,0,0,1,7.051-17.045c4.4-7.7,15.032-13.749,16.2-12.811,2,1.614-13.852,13.39-16.922,21.894,0,0,17.65-12.841,18.878-11.149C291.932,303.261,272.524,313.853,265.58,320.788Z" transform="translate(-243.999 -256.502)" fill="#3e2344"/>
            </g>
          </g>
          <g id="Group_3165" data-name="Group 3165" transform="translate(113.978 77.44)">
            <path id="Path_5878" data-name="Path 5878" d="M264.685,251.723c4.122,18.987,10.515,44.284,24.607,56.635s44.688,19.2,46.141,19.2c3.407.785,7.058-17.2,4.359-19.276s-26.766-11.8-31.039-15.918c-7.637-7.365-4.383-52.219-13.03-62S259.881,229.594,264.685,251.723Z" transform="translate(-264.121 -226.437)" fill="#dd4026"/>
            <path id="Path_5879" data-name="Path 5879" d="M306.568,266.165s10.726,8.913,11.364,11.34.377,6.428-.5,7.444-7.43,4.3-9.934,2.576a43.852,43.852,0,0,1-5.953-5.637l1.184-4.385s-.807,3-7.305-1.07S300.4,260.007,306.568,266.165Z" transform="translate(-229.092 -181.076)" fill="#f29353"/>
          </g>
          <g id="Group_3170" data-name="Group 3170" transform="translate(0 184.716)">
            <g id="Group_3168" data-name="Group 3168" transform="translate(0 136.164)">
              <path id="Path_5880" data-name="Path 5880" d="M249.37,341.456C236.432,353.18,224.66,380.023,216.622,393c-2.368,3.824,4.205,8.794,7.218,5.457,10.27-11.366,33.488-31.107,45.137-41.438C282.694,344.857,261.683,330.3,249.37,341.456Z" transform="translate(-207.386 -337.47)" fill="#ffb072"/>
              <g id="Group_3167" data-name="Group 3167" transform="translate(0 54.077)">
                <path id="Path_5881" data-name="Path 5881" d="M222.819,362.281s-4.92,1.184-8.746,7.106c-.48-.309-2.061,1.186-1.929,2.221.156,1.221,4.633,7.865,6.584,8.535a1.724,1.724,0,0,0,1.175-.829s.456,2.1,4.464,6.286a28.965,28.965,0,0,0,9.441,6.944c.724.331,1.743-.886,1.127-1.388,0,0,3.048-2.565,1.066-5.223-4.063-5.442-4.4-11.022-4.534-15.071a12.475,12.475,0,0,0-.813-4.848C229.286,363.647,226.006,361.553,222.819,362.281Z" transform="translate(-212.135 -362.134)" fill="#ed0c37"/>
                <g id="Group_3166" data-name="Group 3166" clip-path="url(#clip-path-2)">
                  <path id="Path_5882" data-name="Path 5882" d="M216.639,365.906a63.783,63.783,0,0,0,6.435,9.564s7.268,10.761,14.427,12.206,4.911,8.18,4.911,8.18l-25.773-8.592-6.656-12.23,1.006-8.049S215.434,363.486,216.639,365.906Z" transform="translate(-214.702 -358.653)" fill="#ffaec1"/>
                  <path id="Path_5883" data-name="Path 5883" d="M216.892,363.261a5.376,5.376,0,0,0,1.057,6.1c2.763,2.763,4.942,1.807,7.9-1.147S219.9,356.519,216.892,363.261Z" transform="translate(-207.084 -363.765)" fill="#ffb072"/>
                </g>
              </g>
            </g>
            <g id="Group_3169" data-name="Group 3169" transform="translate(39.769)">
              <path id="Path_5885" data-name="Path 5885" d="M260.809,287.246s3.46,65.863-3.933,83.114-26.6,45.328-26.6,45.328,5.269,16.345,24.747,18.689c0,0,29.371-20.686,40.895-52.017S317.1,316.547,312.434,291C309.812,276.65,264.519,266.259,260.809,287.246Z" transform="translate(-230.274 -275.365)" fill="#764582"/>
              <path id="Path_5886" data-name="Path 5886" d="M267.848,280.507s.419,54.843-2.142,76.065c-2.484,20.6-34.135,58.5-34.135,58.5" transform="translate(-228.727 -269.234)" fill="none" stroke="#fff" stroke-miterlimit="10" stroke-width="0.499"/>
            </g>
          </g>
          <g id="Group_3180" data-name="Group 3180" transform="translate(63.338)">
            <g id="Group_3178" data-name="Group 3178" transform="translate(3.342)">
              <path id="Path_5887" data-name="Path 5887" d="M319.9,240.317c5.074,10.094-3.979,48.415-3.979,65.153,0,13.613,2.236,36.376,4.253,44.966a5.343,5.343,0,0,1-2.51,5.832c-7.832,4.6-18.259,7.027-24.69,7.645-24.793,2.385-36.768-1.958-42.4-4.093a6.877,6.877,0,0,1-4.381-7.461c1.25-8.371,4.782-28.849,1.758-47.687-3.957-24.653-10.414-58.183,1.151-68.529s33.221-16.79,33.221-16.79S313.638,227.848,319.9,240.317Z" transform="translate(-242.548 -157.446)" fill="#fff"/>
              <g id="Group_3177" data-name="Group 3177" transform="translate(26.694)">
                <path id="Path_5888" data-name="Path 5888" d="M273.041,241.608s-5.562-.927-13.188-10.4c-5-6.211-11.954-34.317,10.092-38.571s28.536,10.647,29.542,20.39-9.928,17.772-14.878,21.287S273.041,241.608,273.041,241.608Z" transform="translate(-254.723 -190.197)" fill="#3e2344"/>
                <path id="Path_5889" data-name="Path 5889" d="M267.139,209.4a64.81,64.81,0,0,1-3.184,15.157c-2.513,6.641-5.207,8.68-8.38,11.5s12.664,19.643,26.766,23.911c0,0,10.226-12.458,5.536-19.4s-8.4-7.555-6.724-16.828c1.465-8.084,2.337-12.565,2.337-12.565Z" transform="translate(-254.195 -169.312)" fill="#ffb072"/>
                <g id="Group_3176" data-name="Group 3176" transform="translate(4.801)">
                  <g id="Group_3172" data-name="Group 3172" transform="translate(0 10.749)">
                    <g id="Group_3171" data-name="Group 3171">
                      <path id="Path_5890" data-name="Path 5890" d="M265.057,225.359s-.71,6.295,1.826,8.991,7.077,9.213,17.428,8.456c13.826-1.011,8.459-22.953,8.459-22.953s1.443-8.441,0-15.376-15.137-10.563-26.284-7.17c0,0-3.2,3.045-1.973,16.67a4.162,4.162,0,0,0-5.29-.71c-2.453,1.337-2.712,4.5-1.879,7.487C258.341,224.335,262.075,227.42,265.057,225.359Z" transform="translate(-256.913 -196.02)" fill="#ffb072" fill-rule="evenodd"/>
                    </g>
                    <path id="Path_5891" data-name="Path 5891" d="M262.777,213.378l-1.215-3.241,2.076-.859s-1.348-6.053-4.725-3.822C256.141,207.29,259.313,214.608,262.777,213.378Z" transform="translate(-255.787 -185.355)" fill="#e57e55"/>
                  </g>
                  <path id="Path_5892" data-name="Path 5892" d="M261.413,206.6s-1.362,8.511-1.158,12.309,3.951,15.619,21.265,14.565c17.2-1.048,11.039-19.684,8.125-20.963a5.127,5.127,0,0,1-1.715,4.111c-.7-1.741-2.727-2.982-5.547-2.388-2.46-1.392-5.286-.528-8.255,1.243l-2.14,1.5c-5.352-1.318-8.125-4.837-8.8-10.147Z" transform="translate(-252.951 -172.651)" fill="#3e2344"/>
                  <path id="Path_5893" data-name="Path 5893" d="M267.469,213.357s7.164-1.646,9.919,0-1.6.6-5.173.6S267.469,213.357,267.469,213.357Z" transform="translate(-244.212 -166.831)" fill="#fff" stroke="#e57e55" stroke-miterlimit="10" stroke-width="0.276"/>
                  <g id="Group_3173" data-name="Group 3173" transform="translate(16.398 26.757)">
                    <path id="Path_5894" data-name="Path 5894" d="M270.527,207.224c-.066.767-1.072.822-2.3.719s-2.212-.325-2.149-1.092,1.112-1.3,2.342-1.2S270.591,206.457,270.527,207.224Z" transform="translate(-262.386 -200.559)" fill="#3e2344"/>
                    <path id="Path_5895" data-name="Path 5895" d="M264.392,206.319c-.037.114,3.5-1.109,4.62-1.1s5.354.688,5.709.278a6.03,6.03,0,0,0,.634-1.831s-5.764-.563-6.952-.261S264.714,205.343,264.392,206.319Z" transform="translate(-264.392 -203.32)" fill="#3e2344"/>
                  </g>
                  <g id="Group_3174" data-name="Group 3174" transform="translate(30.306 27.352)">
                    <path id="Path_5896" data-name="Path 5896" d="M275.664,207.654c-.064.767-1.072.822-2.3.719s-2.214-.324-2.151-1.092,1.114-1.307,2.342-1.2S275.728,206.887,275.664,207.654Z" transform="translate(-270.168 -200.643)" fill="#3e2344"/>
                    <path id="Path_5897" data-name="Path 5897" d="M277.8,207.751c.009.116-1.517-1.829-2.28-1.973s-4.431.169-4.613-.287a8.271,8.271,0,0,1-.173-1.9s4.9.371,5.661.835S277.718,206.74,277.8,207.751Z" transform="translate(-270.735 -203.592)" fill="#3e2344"/>
                  </g>
                  <g id="Group_3175" data-name="Group 3175" transform="translate(26.698 29.106)">
                    <path id="Path_5898" data-name="Path 5898" d="M271.868,210.939s-2.841-.1-2.778-.875,6.014-1.633,6.341-1.072S273.145,210.582,271.868,210.939Z" transform="translate(-269.09 -199.122)" fill="#e57e55" opacity="0.5"/>
                    <path id="Path_5899" data-name="Path 5899" d="M270.867,204.392s-.831,3.561-.406,4.843,3.037,4.172,3.091,4.782-2.953,2.1-3.175,2.193,4.289-.6,4.157-2-3.486-4.913-3.607-5.6S270.867,204.392,270.867,204.392Z" transform="translate(-267.599 -204.392)" fill="#e57e55"/>
                  </g>
                  <path id="Path_5900" data-name="Path 5900" d="M265.979,226.112c.881-.6,2.331-5.736.789-10.68a6.162,6.162,0,0,1,4.576-7.974c2.82-.307,11.965,2.287,15.58,1.844,7.924-.973,14.065-3.313,14.052-4.775s-5.815.055-5.815.055,8.836-2.254,8.038-9.647a36.17,36.17,0,0,1-12.576-1.546c-5.933-2.032-20.138-4.392-27.691,1.219-4.944,3.67-8.454,15.637-1.908,21.723C264.008,219.1,264.289,227.254,265.979,226.112Z" transform="translate(-256.281 -191.117)" fill="#3e2344"/>
                </g>
              </g>
              <path id="Path_5901" data-name="Path 5901" d="M272.4,228.989s-3.775,75-2.945,82.063-.542,34.161,16.58,39.377c0,0-7.652-39.127-6.569-62.633S272.4,228.989,272.4,228.989Z" transform="translate(-210.601 -145.954)" fill="#a1abad" fill-rule="evenodd" opacity="0.7" style="mix-blend-mode: multiply;isolation: isolate"/>
            </g>
            <path id="Path_5902" data-name="Path 5902" d="M268.241,221.246a191.307,191.307,0,0,1,6.955,54.1c-.41,30.616-1.651,93.421,21.006,91.963,0,0-9.548-38.582-8.967-52.6s8.172-65.528,5.385-74.355C288.581,227.574,268.241,221.246,268.241,221.246Z" transform="translate(-208.567 -155.187)" fill="#fd6141"/>
            <g id="Group_3179" data-name="Group 3179" transform="translate(0 64.954)">
              <path id="Path_5903" data-name="Path 5903" d="M274.69,220.742s15.277,23.9,20.173,64.42c2.333,19.314-.283,49.921-3.2,69.465-3.357,22.5-47.4,22.464-50.224,16.567s9.787-43.271,5.856-64.506-6.253-55.907-1.559-67.31S274.69,220.742,274.69,220.742Z" transform="translate(-241.024 -220.742)" fill="#fd6141"/>
              <path id="Path_5904" data-name="Path 5904" d="M246.582,239.26s7.5,36.15,6.538,55.284-7.053,57.8-7.053,57.8" transform="translate(-235.01 -198.659)" fill="none" stroke="#fff" stroke-linecap="round" stroke-linejoin="round" stroke-width="0.499"/>
              <path id="Path_5905" data-name="Path 5905" d="M244.981,234.29a35.894,35.894,0,0,0-2,9.454c4.131,31.53,21.864,66.867,49.1,79.553.9-10.243,1.443-21.055,1.294-30.757-18.248-18.178-32.2-41.8-42.888-65.093A18.469,18.469,0,0,0,244.981,234.29Z" transform="translate(-238.684 -212.746)" fill="#dd4026"/>
            </g>
          </g>
          <g id="Group_3181" data-name="Group 3181" transform="translate(66.738 74.581)">
            <path id="Path_5906" data-name="Path 5906" d="M297.464,268.256s13.578,3.177,15.234,5.062,4.433,8.34,4.1,9.641-7.512,4.135-10.517,3.716A23.112,23.112,0,0,1,300,284.562c.449-1.6.327-3.039-1.34-3.556-1.763-.548-3.635.4-6.7,1.785C284.965,285.938,289.19,265.507,297.464,268.256Z" transform="translate(-187.891 -174.013)" fill="#ffb072"/>
            <path id="Path_5907" data-name="Path 5907" d="M243.273,253.66c3.653,20.232,29.529,50.415,40.6,59.915,9.706,8.327,57.637,22.462,59.752,22.572,4.909,1.046,11.16-16.632,7.345-18.915s-46.538-21.943-51.164-27.086-21.592-50.836-33.644-61.27S239.153,230.82,243.273,253.66Z" transform="translate(-242.575 -225.133)" fill="#ff8976"/>
          </g>
        </g>
      </g>
    </g>
    <g id="Group_3185" data-name="Group 3185" transform="translate(582 618.977)">
      <path id="Path_5909" data-name="Path 5909" d="M143.969,157.886a5.442,5.442,0,0,0-.137,10.883v.009l.27.007a5.282,5.282,0,0,0,3.821-1.65,5.742,5.742,0,0,0,1.572-3.649l.005-.076v-.076a5.4,5.4,0,0,0-1.672-3.9A5.581,5.581,0,0,0,143.969,157.886Zm31.1-49.934a13.675,13.675,0,0,0-6.488-7.065,22.636,22.636,0,0,0-10.512-2.224,17.877,17.877,0,0,0-12.7,5.066,17.544,17.544,0,0,0-5.136,12.607,18.471,18.471,0,0,0,.981,5.7h0l.005.013c.014.045.025.089.04.134l.009,0a4.254,4.254,0,0,0,1.531,2.166,4.325,4.325,0,0,0,2.56.839,4.4,4.4,0,0,0,1.279-.206l0,.009c.036-.009.067-.027.1-.038s.069-.014.1-.027l0-.009a4.254,4.254,0,0,0,2.1-1.513,4.261,4.261,0,0,0,.619-3.894l.009,0a11.247,11.247,0,0,1-.451-3.166,8.827,8.827,0,0,1,2.455-6.351,9.026,9.026,0,0,1,6.573-2.517c3.374,0,5.7.8,7.081,1.968a5.576,5.576,0,0,1,1.589,2.167,8.614,8.614,0,0,1,.6,3.362,11.273,11.273,0,0,1-.829,4.393,13.756,13.756,0,0,1-3.808,5.015,50.278,50.278,0,0,1-6.021,4.315l.022-.014a50.284,50.284,0,0,0-6.89,4.961,22.927,22.927,0,0,0-5.263,6.8l-.005.009,0,.005a28.367,28.367,0,0,0-2.842,9.83l0,.036,0,.033-.018.389a4.506,4.506,0,0,0,1.04,2.869,4.248,4.248,0,0,0,2.888,1.538h.014l.389.016a4.563,4.563,0,0,0,2.94-1.062,4.334,4.334,0,0,0,1.534-2.962l0,.016a17.522,17.522,0,0,1,1.959-6.712,13.9,13.9,0,0,1,3.367-4.322,47.775,47.775,0,0,1,5.658-3.97l.007-.005.011-.007c3.349-2.187,6.955-4.547,9.837-7.9a20.152,20.152,0,0,0,3.552-5.848,20.774,20.774,0,0,0,1.355-7.59A18.091,18.091,0,0,0,175.066,107.953Z" transform="translate(78.216 29.863)" fill="#f1f2f2"/>
      <path id="Path_5912" data-name="Path 5912" d="M69.61,162.527a5.442,5.442,0,0,0,4.453,9.931l0,.009.248-.107a5.283,5.283,0,0,0,2.772-3.1,5.741,5.741,0,0,0-.107-3.971l-.027-.071-.033-.069a5.392,5.392,0,0,0-3.157-2.835A5.577,5.577,0,0,0,69.61,162.527Zm7.219-58.381a13.67,13.67,0,0,0-8.856-3.682,22.639,22.639,0,0,0-10.472,2.4,17.89,17.89,0,0,0-9.392,9.936,17.555,17.555,0,0,0,.64,13.6,18.467,18.467,0,0,0,3.286,4.757v0l.009.009c.031.034.06.071.092.1l.007-.007a4.254,4.254,0,0,0,2.3,1.321,4.33,4.33,0,0,0,2.678-.317,4.39,4.39,0,0,0,1.073-.724l.005.007c.029-.023.051-.052.078-.076s.056-.043.081-.069l-.007-.007a4.252,4.252,0,0,0,1.272-2.254,4.319,4.319,0,0,0-.317-2.678,4.373,4.373,0,0,0-.76-1.116l.007-.005a11.28,11.28,0,0,1-1.741-2.683,8.825,8.825,0,0,1-.441-6.794,9.024,9.024,0,0,1,4.9-5.048c3.063-1.42,5.513-1.672,7.255-1.19a5.565,5.565,0,0,1,2.352,1.3,8.66,8.66,0,0,1,1.958,2.8,11.312,11.312,0,0,1,1.095,4.335,13.74,13.74,0,0,1-1.348,6.151,50.126,50.126,0,0,1-3.647,6.446l.014-.024a50.135,50.135,0,0,0-4.165,7.4,22.874,22.874,0,0,0-1.916,8.386v.016a28.309,28.309,0,0,0,1.554,10.114l.011.034.011.033.148.36a4.512,4.512,0,0,0,2.149,2.166,4.257,4.257,0,0,0,3.266.181l.005,0,.009,0,.36-.148a4.568,4.568,0,0,0,2.22-2.2,4.328,4.328,0,0,0,.147-3.333l.005.018a17.546,17.546,0,0,1-1.044-6.915,13.946,13.946,0,0,1,1.236-5.339,47.913,47.913,0,0,1,3.465-5.978l.005-.009.007-.011c2.119-3.392,4.4-7.051,5.605-11.3a20.172,20.172,0,0,0,.762-6.8,20.744,20.744,0,0,0-1.959-7.458A18.1,18.1,0,0,0,76.828,104.145Z" transform="translate(4.182 31.306)" fill="#f1f2f2"/>
      <path id="Path_5913" data-name="Path 5913" d="M93.963,99.847a3.618,3.618,0,0,0-.944,7.174l0,.005.179.027a3.516,3.516,0,0,0,2.651-.791,3.81,3.81,0,0,0,1.324-2.285l.009-.051.007-.051a3.6,3.6,0,0,0-.8-2.7A3.7,3.7,0,0,0,93.963,99.847Zm24.443-30.528a9.084,9.084,0,0,0-3.729-5.173,15.045,15.045,0,0,0-6.765-2.292,11.889,11.889,0,0,0-8.78,2.348,11.668,11.668,0,0,0-4.378,7.921,12.254,12.254,0,0,0,.2,3.837v.009c.007.031.011.062.016.092l.005,0a2.831,2.831,0,0,0,2.466,2.3,2.879,2.879,0,0,0,.861-.036v.007c.025,0,.047-.013.071-.016s.047-.005.071-.011l0-.005a2.834,2.834,0,0,0,1.507-.834,2.88,2.88,0,0,0,.754-1.625,2.946,2.946,0,0,0-.042-.9h.005a7.549,7.549,0,0,1-.049-2.126,5.867,5.867,0,0,1,2.119-4,6,6,0,0,1,4.536-1.145,7.22,7.22,0,0,1,4.521,1.854,3.714,3.714,0,0,1,.879,1.556,5.755,5.755,0,0,1,.132,2.265,7.516,7.516,0,0,1-.892,2.835,9.144,9.144,0,0,1-2.907,3.012,33.33,33.33,0,0,1-4.313,2.377l.016-.009A33.435,33.435,0,0,0,99.773,84.3a15.237,15.237,0,0,0-4.007,4.078l-.005.005,0,0a18.864,18.864,0,0,0-2.647,6.267l-.005.024L93.1,94.7l-.042.255a2.99,2.99,0,0,0,.461,1.974,2.83,2.83,0,0,0,1.786,1.243h0l.005,0,.257.042a3.038,3.038,0,0,0,2.025-.472,2.875,2.875,0,0,0,1.243-1.835l0,.011a11.655,11.655,0,0,1,1.82-4.277,9.271,9.271,0,0,1,2.562-2.591,31.939,31.939,0,0,1,4.046-2.177l.005,0,.007,0a29.633,29.633,0,0,0,7.114-4.442,13.4,13.4,0,0,0,2.8-3.582,13.812,13.812,0,0,0,1.491-4.9A12.006,12.006,0,0,0,118.407,69.319Z" transform="translate(38.88 0)" fill="#f1f2f2"/>
    </g>
  </g>
</svg>
